<svg width="649" height="173" viewBox="0 0 649 173" fill="none" xmlns="http://www.w3.org/2000/svg">
<path fill-rule="evenodd" clip-rule="evenodd" d="M166.781 106.388C155.816 106.388 147.137 97.6155 147.137 86.0129C147.137 74.4084 155.816 65.728 166.781 65.728C173.947 65.728 180.268 69.0411 183.444 76.4379L194.347 70.1455C189.235 59.9543 178.8 54.0338 166.781 54.0338C148.783 54.0338 134.621 68.1046 134.621 86.0129C134.621 104.011 148.783 117.992 166.781 117.992C178.634 117.992 189.002 112.297 194.162 101.865L183.425 95.6662C180.246 103.084 173.938 106.388 166.781 106.388ZM630.535 69.6572C624.506 69.6572 619.753 71.576 616.19 75.139V71.0267H604.13V116.623H616.19V96.4291C616.19 85.2824 620.669 80.7142 627.52 80.7142C633.095 80.7142 636.75 85.0077 636.75 91.4032V116.623H648.81V88.8435C648.81 77.5156 641.501 69.6572 630.535 69.6572ZM571.929 69.9318C558.316 69.9318 547.078 79.5259 547.078 93.8694C547.078 108.217 558.316 117.809 571.929 117.809C585.27 117.809 596.51 108.217 596.51 93.8694C596.51 79.5259 585.27 69.9318 571.929 69.9318ZM571.929 107.484C565.353 107.484 558.774 102.367 558.774 93.8694C558.774 85.374 565.353 80.2565 571.929 80.2565C578.235 80.2565 584.814 85.374 584.814 93.8694C584.814 102.367 578.235 107.484 571.929 107.484ZM533.427 50.1962C529.133 50.1962 526.118 53.5761 526.118 57.4137C526.118 61.4345 529.133 64.4481 533.427 64.4481C537.631 64.4481 540.738 61.4345 540.738 57.4137C540.738 53.5761 537.631 50.1962 533.427 50.1962ZM527.398 116.623H539.458V71.0267H527.398V116.623ZM501.499 69.6572C495.47 69.6572 490.721 71.576 487.158 75.139V71.0267H475.097V116.623H487.158V96.4291C487.158 85.2824 491.634 80.7142 498.486 80.7142C504.059 80.7142 507.714 85.0077 507.714 91.4032V116.623H519.774V88.8435C519.774 77.5156 512.465 69.6572 501.499 69.6572ZM467.474 71.0267H455.413V91.2201C455.413 102.367 450.937 106.937 444.084 106.937C438.512 106.937 434.856 102.643 434.856 96.246V71.0267H422.795V98.8038C422.795 110.134 430.104 117.992 441.07 117.992C447.099 117.992 451.85 116.073 455.413 112.51V116.623H467.474V71.0267ZM397.45 69.6572C390.141 69.6572 384.568 72.4896 380.82 77.1493C377.529 72.3065 371.956 69.6572 365.833 69.6572C359.896 69.6572 355.417 71.576 352.222 74.7747V71.0267H340.16V116.623H352.222V94.6934C352.222 85.0993 356.241 80.7142 362.638 80.7142C367.661 80.7142 371.592 84.4584 371.592 90.5792V116.623H383.652V94.6934C383.652 85.0993 387.856 80.7142 394.251 80.7142C399.277 80.7142 403.205 84.4584 403.205 90.5792V116.623H415.175V88.113C415.175 76.9682 406.951 69.6572 397.45 69.6572ZM314.815 69.6572C307.504 69.6572 301.93 72.4896 298.186 77.1493C294.896 72.3065 289.323 69.6572 283.2 69.6572C277.262 69.6572 272.784 71.576 269.585 74.7747V71.0267H257.527V116.623H269.585V94.6934C269.585 85.0993 273.606 80.7142 280.001 80.7142C285.027 80.7142 288.956 84.4584 288.956 90.5792V116.623H301.017V94.6934C301.017 85.0993 305.221 80.7142 311.616 80.7142C316.64 80.7142 320.571 84.4584 320.571 90.5792V116.623H332.538V88.113C332.538 76.9682 324.317 69.6572 314.815 69.6572ZM225.324 69.9318C211.712 69.9318 200.473 79.5259 200.473 93.8694C200.473 108.217 211.712 117.809 225.324 117.809C238.667 117.809 249.905 108.217 249.905 93.8694C249.905 79.5259 238.667 69.9318 225.324 69.9318ZM225.324 107.484C218.748 107.484 212.167 102.367 212.167 93.8694C212.167 85.374 218.748 80.2565 225.324 80.2565C231.63 80.2565 238.209 85.374 238.209 93.8694C238.209 102.367 231.63 107.484 225.324 107.484Z" fill="white"/>
<path fill-rule="evenodd" clip-rule="evenodd" d="M58.4536 21.3336L73.7068 36.585C74.384 37.2621 74.9409 37.4929 75.8965 37.4929L96.1319 37.491C97.0855 37.4929 97.6444 37.2621 98.3215 36.585L113.575 21.3317C114.75 20.1548 116.669 20.1548 117.847 21.3336L128.422 31.9081C129.601 33.083 129.601 35.0018 128.422 36.1787L113.169 51.4339C108.555 56.0478 102.659 58.4931 96.1299 58.4931H75.8965C69.3676 58.4931 63.4757 56.0497 58.8579 51.4339L43.6065 36.1806C42.4316 35.0037 42.4316 33.0849 43.6065 31.9081L54.1829 21.3336C55.3598 20.1548 57.2786 20.1548 58.4536 21.3336Z" fill="white"/>
<path fill-rule="evenodd" clip-rule="evenodd" d="M113.573 150.694L98.3213 135.441C97.6423 134.765 97.0853 134.533 96.1297 134.535H75.8982C74.9426 134.535 74.3837 134.763 73.7066 135.441L58.4533 150.694C57.2765 151.873 55.3577 151.873 54.1789 150.694L43.6044 140.119C42.4295 138.941 42.4276 137.024 43.6063 135.847L58.8577 120.595C63.4735 115.978 69.3692 113.534 75.8982 113.536H96.1297C102.659 113.536 108.552 115.976 113.17 120.594L128.422 135.847C129.598 137.024 129.598 138.941 128.422 140.117L117.847 150.694C116.668 151.871 114.75 151.871 113.573 150.694ZM93.4365 168.951C89.3356 173.052 82.6865 173.054 78.5895 168.951C74.4886 164.852 74.4886 158.205 78.5895 154.104C82.6865 150.007 89.3337 150.007 93.4346 154.104C97.5354 158.205 97.5354 164.852 93.4365 168.951Z" fill="white"/>
<path fill-rule="evenodd" clip-rule="evenodd" d="M21.334 113.574L36.5873 98.3247C37.2625 97.6476 37.4952 97.0888 37.4933 96.1313L37.4952 75.8997C37.4914 74.946 37.2644 74.3872 36.5873 73.71L21.3321 58.4548C20.1553 57.2761 20.1553 55.3592 21.3321 54.1804L31.9085 43.6059C33.0854 42.431 35.0042 42.431 36.181 43.6078L51.4343 58.8592C56.0502 63.477 58.4935 69.3708 58.4935 75.8997V96.1332C58.4916 102.658 56.0502 108.554 51.4343 113.172L36.181 128.425C35.0061 129.6 33.0854 129.6 31.9085 128.425L21.334 117.849C20.1591 116.672 20.1572 114.751 21.334 113.574ZM3.0766 93.438C-1.02426 89.3372 -1.02617 82.6881 3.07469 78.591C7.17555 74.4883 13.8228 74.4902 17.9236 78.591C22.0226 82.6881 22.0245 89.3372 17.9236 93.438C13.8228 97.5389 7.17555 97.5389 3.0766 93.438Z" fill="white"/>
<path fill-rule="evenodd" clip-rule="evenodd" d="M78.5917 3.07422C82.6926 -1.02474 89.3379 -1.02474 93.4406 3.07422C97.5415 7.17317 97.5415 13.8223 93.4406 17.9231C89.3398 22.024 82.6945 22.0221 78.5917 17.9231C74.4928 13.8223 74.4928 7.17317 78.5917 3.07422Z" fill="white"/>
</svg>
