<?xml version="1.0" encoding="utf-8"?>
<svg width="649" height="173" viewBox="0 0 129.601 172.144" fill="none" xmlns="http://www.w3.org/2000/svg">
  <path fill-rule="evenodd" clip-rule="evenodd" d="M58.4536 21.3336L73.7068 36.585C74.384 37.2621 74.9409 37.4929 75.8965 37.4929L96.1319 37.491C97.0855 37.4929 97.6444 37.2621 98.3215 36.585L113.575 21.3317C114.75 20.1548 116.669 20.1548 117.847 21.3336L128.422 31.9081C129.601 33.083 129.601 35.0018 128.422 36.1787L113.169 51.4339C108.555 56.0478 102.659 58.4931 96.1299 58.4931H75.8965C69.3676 58.4931 63.4757 56.0497 58.8579 51.4339L43.6065 36.1806C42.4316 35.0037 42.4316 33.0849 43.6065 31.9081L54.1829 21.3336C55.3598 20.1548 57.2786 20.1548 58.4536 21.3336Z" fill="black"/>
  <path fill-rule="evenodd" clip-rule="evenodd" d="M113.573 150.694L98.3213 135.441C97.6423 134.765 97.0853 134.533 96.1297 134.535H75.8982C74.9426 134.535 74.3837 134.763 73.7066 135.441L58.4533 150.694C57.2765 151.873 55.3577 151.873 54.1789 150.694L43.6044 140.119C42.4295 138.941 42.4276 137.024 43.6063 135.847L58.8577 120.595C63.4735 115.978 69.3692 113.534 75.8982 113.536H96.1297C102.659 113.536 108.552 115.976 113.17 120.594L128.422 135.847C129.598 137.024 129.598 138.941 128.422 140.117L117.847 150.694C116.668 151.871 114.75 151.871 113.573 150.694ZM93.4365 168.951C89.3356 173.052 82.6865 173.054 78.5895 168.951C74.4886 164.852 74.4886 158.205 78.5895 154.104C82.6865 150.007 89.3337 150.007 93.4346 154.104C97.5354 158.205 97.5354 164.852 93.4365 168.951Z" fill="black"/>
  <path fill-rule="evenodd" clip-rule="evenodd" d="M21.334 113.574L36.5873 98.3247C37.2625 97.6476 37.4952 97.0888 37.4933 96.1313L37.4952 75.8997C37.4914 74.946 37.2644 74.3872 36.5873 73.71L21.3321 58.4548C20.1553 57.2761 20.1553 55.3592 21.3321 54.1804L31.9085 43.6059C33.0854 42.431 35.0042 42.431 36.181 43.6078L51.4343 58.8592C56.0502 63.477 58.4935 69.3708 58.4935 75.8997V96.1332C58.4916 102.658 56.0502 108.554 51.4343 113.172L36.181 128.425C35.0061 129.6 33.0854 129.6 31.9085 128.425L21.334 117.849C20.1591 116.672 20.1572 114.751 21.334 113.574ZM3.0766 93.438C-1.02426 89.3372 -1.02617 82.6881 3.07469 78.591C7.17555 74.4883 13.8228 74.4902 17.9236 78.591C22.0226 82.6881 22.0245 89.3372 17.9236 93.438C13.8228 97.5389 7.17555 97.5389 3.0766 93.438Z" fill="black"/>
  <path fill-rule="evenodd" clip-rule="evenodd" d="M78.5917 3.07422C82.6926 -1.02474 89.3379 -1.02474 93.4406 3.07422C97.5415 7.17317 97.5415 13.8223 93.4406 17.9231C89.3398 22.024 82.6945 22.0221 78.5917 17.9231C74.4928 13.8223 74.4928 7.17317 78.5917 3.07422Z" fill="black"/>
</svg>