<svg width="126" height="199" viewBox="0 0 126 199" fill="none" xmlns="http://www.w3.org/2000/svg">
<path fill-rule="evenodd" clip-rule="evenodd" d="M81.644 173.646L64.0674 156.072C63.2872 155.292 62.6454 155.026 61.5443 155.026L38.2268 155.028C37.1279 155.026 36.4839 155.292 35.7037 156.072L18.1271 173.648C16.7732 175.004 14.5621 175.004 13.2038 173.646L1.01874 161.461C-0.339561 160.107 -0.339561 157.896 1.01874 156.54L18.5953 138.961C23.912 133.645 30.7056 130.827 38.229 130.827H61.5443C69.0676 130.827 75.8569 133.642 81.178 138.961L98.7523 156.538C100.106 157.894 100.106 160.105 98.7523 161.461L86.565 173.646C85.2089 175.004 82.9979 175.004 81.644 173.646Z" fill="#FEF9EE"/>
<path fill-rule="evenodd" clip-rule="evenodd" d="M18.1294 24.5831L35.7037 42.1596C36.4862 42.9377 37.1279 43.2058 38.2291 43.2036L61.5421 43.2036C62.6433 43.2036 63.2872 42.9399 64.0675 42.1596L81.644 24.5831C83.0001 23.2248 85.2112 23.2248 86.5695 24.5831L98.7546 36.7682C100.108 38.1265 100.111 40.3354 98.7524 41.6915L81.1781 59.2658C75.8592 64.5869 69.0655 67.4024 61.5421 67.4002H38.2291C30.7057 67.4002 23.9142 64.5891 18.5931 59.268L1.01881 41.6915C-0.337296 40.3354 -0.337296 38.1265 1.01881 36.7704L13.2039 24.5831C14.5622 23.227 16.7733 23.227 18.1294 24.5831ZM41.3325 3.54492C46.058 -1.18054 53.7198 -1.18274 58.4409 3.54492C63.1664 8.26818 63.1664 15.9278 58.4409 20.6533C53.7198 25.3744 46.0602 25.3744 41.3347 20.6533C36.6092 15.9278 36.6092 8.26818 41.3325 3.54492Z" fill="#FEF9EE"/>
<path fill-rule="evenodd" clip-rule="evenodd" d="M124.417 67.3564L106.84 84.9285C106.062 85.7088 105.794 86.3528 105.796 87.4561L105.794 110.769C105.798 111.868 106.06 112.512 106.84 113.292L124.419 130.871C125.775 132.229 125.775 134.438 124.419 135.797L112.231 147.982C110.875 149.336 108.664 149.336 107.308 147.979L89.7316 130.405C84.4127 125.084 81.5972 118.293 81.5972 110.769V87.4539C81.5994 79.9349 84.4127 73.1413 89.7316 67.8202L107.308 50.2436C108.662 48.8897 110.875 48.8897 112.231 50.2436L124.417 62.4309C125.77 63.787 125.773 66.0003 124.417 67.3564ZM145.455 90.5595C150.18 95.285 150.182 102.947 145.457 107.668C140.732 112.396 133.072 112.393 128.346 107.668C123.623 102.947 123.621 95.285 128.346 90.5595C133.072 85.8341 140.732 85.8341 145.455 90.5595Z" fill="#FEF9EE"/>
<path fill-rule="evenodd" clip-rule="evenodd" d="M58.4385 194.688C53.713 199.411 46.0556 199.411 41.3279 194.688C36.6025 189.964 36.6025 182.303 41.3279 177.577C46.0534 172.852 53.7108 172.854 58.4385 177.577C63.1618 182.303 63.1618 189.964 58.4385 194.688Z" fill="#FEF9EE"/>
</svg>
